<svg height="910" width="720" xmlns="http://www.w3.org/2000/svg">
<rect height="910" fill="#555" width="720"></rect>
<text fill="#7f7" font-family="Courier New" font-size="12" xml:space="preserve">
<tspan x="10" y="26">└─┬ grunt-contrib-jade@1.0.0 </tspan>
<tspan x="10" y="42">  ├─┬ chalk@1.1.3 </tspan>
<tspan x="10" y="58">  │ ├── ansi-styles@2.2.1 </tspan>
<tspan x="10" y="74">  │ ├── escape-string-regexp@1.0.5 </tspan>
<tspan x="10" y="90">  │ ├─┬ has-ansi@2.0.0 </tspan>
<tspan x="10" y="106">  │ │ └── ansi-regex@2.1.1 </tspan>
<tspan x="10" y="122">  │ ├── strip-ansi@3.0.1 </tspan>
<tspan x="10" y="138">  │ └── supports-color@2.0.0 </tspan>
<tspan x="10" y="154">  └─┬ jade@1.11.0 </tspan>
<tspan x="10" y="170">    ├── character-parser@1.2.1 </tspan>
<tspan x="10" y="186">    ├─┬ clean-css@3.4.25 </tspan>
<tspan x="10" y="202">    │ ├─┬ commander@2.8.1 </tspan>
<tspan x="10" y="218">    │ │ └── graceful-readlink@1.0.1 </tspan>
<tspan x="10" y="234">    │ └─┬ source-map@0.4.4 </tspan>
<tspan x="10" y="250">    │   └── amdefine@1.0.1 </tspan>
<tspan x="10" y="266">    ├── commander@2.6.0 </tspan>
<tspan x="10" y="282">    ├─┬ constantinople@3.0.2 </tspan>
<tspan x="10" y="298">    │ └── acorn@2.7.0 </tspan>
<tspan x="10" y="314">    ├─┬ jstransformer@0.0.2 </tspan>
<tspan x="10" y="330">    │ ├── is-promise@2.1.0 </tspan>
<tspan x="10" y="346">    │ └─┬ promise@6.1.0 </tspan>
<tspan x="10" y="362">    │   └── asap@1.0.0 </tspan>
<tspan x="10" y="378">    ├─┬ mkdirp@0.5.1 </tspan>
<tspan x="10" y="394">    │ └── minimist@0.0.8 </tspan>
<tspan x="10" y="410">    ├─┬ transformers@2.1.0 </tspan>
<tspan x="10" y="426">    │ ├─┬ css@1.0.8 </tspan>
<tspan x="10" y="442">    │ │ ├── css-parse@1.0.4 </tspan>
<tspan x="10" y="458">    │ │ └── css-stringify@1.0.5 </tspan>
<tspan x="10" y="474">    │ ├─┬ promise@2.0.0 </tspan>
<tspan x="10" y="490">    │ │ └── is-promise@1.0.1 </tspan>
<tspan x="10" y="506">    │ └─┬ uglify-js@2.2.5 </tspan>
<tspan x="10" y="522">    │   ├─┬ optimist@0.3.7 </tspan>
<tspan x="10" y="538">    │   │ └── wordwrap@0.0.3 </tspan>
<tspan x="10" y="554">    │   └── source-map@0.1.43 </tspan>
<tspan x="10" y="570">    ├─┬ uglify-js@2.8.21 </tspan>
<tspan x="10" y="586">    │ ├── source-map@0.5.6 </tspan>
<tspan x="10" y="602">    │ ├── uglify-to-browserify@1.0.2 </tspan>
<tspan x="10" y="618">    │ └─┬ yargs@3.10.0 </tspan>
<tspan x="10" y="634">    │   ├── camelcase@1.2.1 </tspan>
<tspan x="10" y="650">    │   ├─┬ cliui@2.1.0 </tspan>
<tspan x="10" y="666">    │   │ ├─┬ center-align@0.1.3 </tspan>
<tspan x="10" y="682">    │   │ │ ├─┬ align-text@0.1.4 </tspan>
<tspan x="10" y="698">    │   │ │ │ ├─┬ kind-of@3.1.0 </tspan>
<tspan x="10" y="714">    │   │ │ │ │ └── is-buffer@1.1.5 </tspan>
<tspan x="10" y="730">    │   │ │ │ ├── longest@1.0.1 </tspan>
<tspan x="10" y="746">    │   │ │ │ └── repeat-string@1.6.1 </tspan>
<tspan x="10" y="762">    │   │ │ └── lazy-cache@1.0.4 </tspan>
<tspan x="10" y="778">    │   │ ├── right-align@0.1.3 </tspan>
<tspan x="10" y="794">    │   │ └── wordwrap@0.0.2 </tspan>
<tspan x="10" y="810">    │   ├── decamelize@1.2.0 </tspan>
<tspan x="10" y="826">    │   └── window-size@0.1.0 </tspan>
<tspan x="10" y="842">    ├── void-elements@2.0.1 </tspan>
<tspan x="10" y="858">    └─┬ with@4.0.3 </tspan>
<tspan x="10" y="874">      ├── acorn@1.2.2 </tspan>
<tspan x="10" y="890">      └── acorn-globals@1.0.9</tspan>
</text>
</svg>
